<?xml version="1.0" encoding="UTF-8"?>
<svg xmlns="http://www.w3.org/2000/svg" xmlns:xlink="http://www.w3.org/1999/xlink" width="11px" height="14px" viewBox="0 0 11 14" version="1.1">
<g id="surface1">
<path style="fill-rule:nonzero;fill:rgb(0%,0%,0%);fill-opacity:1;stroke-width:8;stroke-linecap:round;stroke-linejoin:round;stroke:rgb(80.000001%,80.000001%,80.000001%);stroke-opacity:1;stroke-miterlimit:4;" d="M 250 224.051339 C 245.56108 224.051339 242.009943 227.539062 242.009943 232.003348 L 242.009943 255.998884 C 242.009943 260.46317 238.458807 263.950893 234.019886 263.950893 L 194.069602 263.950893 C 189.630682 263.950893 186.079545 260.46317 186.079545 255.998884 L 186.079545 143.973214 C 186.079545 139.648438 189.630682 136.021205 194.069602 136.021205 L 234.019886 136.021205 C 238.458807 136.021205 242.009943 139.648438 242.009943 143.973214 L 242.009943 167.96875 C 242.009943 172.433036 245.56108 176.060268 250 176.060268 C 254.43892 176.060268 257.990057 172.433036 257.990057 167.96875 L 257.990057 143.973214 C 257.990057 130.859375 247.159091 119.977679 234.019886 119.977679 L 194.069602 119.977679 C 180.752841 119.977679 169.921875 130.859375 169.921875 143.973214 L 169.921875 255.998884 C 169.921875 269.252232 180.752841 279.99442 194.069602 279.99442 L 234.019886 279.99442 C 247.159091 279.99442 257.990057 269.252232 257.990057 255.998884 L 257.990057 232.003348 C 257.990057 227.539062 254.43892 224.051339 250 224.051339 Z M 250 224.051339 " transform="matrix(0.022,0,0,0.028,0,0)"/>
<path style="fill-rule:nonzero;fill:rgb(0%,0%,0%);fill-opacity:1;stroke-width:8;stroke-linecap:round;stroke-linejoin:round;stroke:rgb(80.000001%,80.000001%,80.000001%);stroke-opacity:1;stroke-miterlimit:4;" d="M 328.480114 204.799107 C 328.480114 204.659598 328.65767 204.659598 328.65767 204.520089 C 328.65767 204.520089 328.65767 204.520089 328.65767 204.38058 C 328.835227 204.241071 328.835227 203.962054 329.012784 203.822545 C 329.012784 203.543527 329.367898 203.264509 329.367898 202.985491 C 329.545455 202.706473 329.545455 202.566964 329.723011 202.148438 C 329.723011 202.008929 329.900568 201.86942 329.900568 201.450893 C 330.078125 200.47433 330.078125 199.358259 329.900568 198.381696 C 329.900568 198.242188 329.723011 197.96317 329.723011 197.684152 C 329.545455 197.405134 329.545455 197.265625 329.545455 196.847098 C 329.367898 196.56808 329.190341 196.428571 329.012784 196.149554 C 329.012784 195.870536 328.835227 195.731027 328.835227 195.452009 C 328.480114 195.033482 328.125 194.614955 327.769886 194.335938 L 295.809659 162.248884 C 292.613636 159.179688 287.642045 159.179688 284.446023 162.248884 C 281.427557 165.457589 281.427557 170.479911 284.446023 173.549107 L 302.734375 191.964286 L 210.049716 191.964286 C 205.610795 191.964286 202.059659 195.452009 202.059659 199.916295 C 202.059659 204.241071 205.610795 207.868304 210.049716 207.868304 L 302.734375 207.868304 L 284.446023 226.143973 C 281.25 229.352679 281.25 234.375 284.446023 237.444196 C 286.044034 239.118304 287.997159 239.815848 290.127841 239.815848 C 292.258523 239.815848 294.211648 238.978795 295.809659 237.444196 L 327.769886 205.496652 C 327.947443 205.357143 328.125 205.078125 328.480114 204.799107 Z M 328.480114 204.799107 " transform="matrix(0.022,0,0,0.028,0,0)"/>
<path style=" stroke:none;fill-rule:nonzero;fill:rgb(0%,0%,0%);fill-opacity:1;" d="M 5.5 6.273438 C 5.402344 6.273438 5.324219 6.371094 5.324219 6.496094 L 5.324219 7.167969 C 5.324219 7.292969 5.246094 7.390625 5.148438 7.390625 L 4.269531 7.390625 C 4.171875 7.390625 4.09375 7.292969 4.09375 7.167969 L 4.09375 4.03125 C 4.09375 3.910156 4.171875 3.808594 4.269531 3.808594 L 5.148438 3.808594 C 5.246094 3.808594 5.324219 3.910156 5.324219 4.03125 L 5.324219 4.703125 C 5.324219 4.828125 5.402344 4.929688 5.5 4.929688 C 5.597656 4.929688 5.675781 4.828125 5.675781 4.703125 L 5.675781 4.03125 C 5.675781 3.664062 5.4375 3.359375 5.148438 3.359375 L 4.269531 3.359375 C 3.976562 3.359375 3.738281 3.664062 3.738281 4.03125 L 3.738281 7.167969 C 3.738281 7.539062 3.976562 7.839844 4.269531 7.839844 L 5.148438 7.839844 C 5.4375 7.839844 5.675781 7.539062 5.675781 7.167969 L 5.675781 6.496094 C 5.675781 6.371094 5.597656 6.273438 5.5 6.273438 Z M 5.5 6.273438 "/>
<path style=" stroke:none;fill-rule:nonzero;fill:rgb(0%,0%,0%);fill-opacity:1;" d="M 7.226562 5.734375 C 7.226562 5.730469 7.230469 5.730469 7.230469 5.726562 C 7.230469 5.726562 7.230469 5.726562 7.230469 5.722656 C 7.234375 5.71875 7.234375 5.710938 7.238281 5.707031 C 7.238281 5.699219 7.246094 5.691406 7.246094 5.683594 C 7.25 5.675781 7.25 5.671875 7.253906 5.660156 C 7.253906 5.65625 7.257812 5.652344 7.257812 5.640625 C 7.261719 5.613281 7.261719 5.582031 7.257812 5.554688 C 7.257812 5.550781 7.253906 5.542969 7.253906 5.535156 C 7.25 5.527344 7.25 5.523438 7.25 5.511719 C 7.246094 5.503906 7.242188 5.5 7.238281 5.492188 C 7.238281 5.484375 7.234375 5.480469 7.234375 5.472656 C 7.226562 5.460938 7.21875 5.449219 7.210938 5.441406 L 6.507812 4.542969 C 6.4375 4.457031 6.328125 4.457031 6.257812 4.542969 C 6.191406 4.632812 6.191406 4.773438 6.257812 4.859375 L 6.660156 5.375 L 4.621094 5.375 C 4.523438 5.375 4.445312 5.472656 4.445312 5.597656 C 4.445312 5.71875 4.523438 5.820312 4.621094 5.820312 L 6.660156 5.820312 L 6.257812 6.332031 C 6.1875 6.421875 6.1875 6.5625 6.257812 6.648438 C 6.292969 6.695312 6.335938 6.714844 6.382812 6.714844 C 6.429688 6.714844 6.472656 6.691406 6.507812 6.648438 L 7.210938 5.753906 C 7.214844 5.75 7.21875 5.742188 7.226562 5.734375 Z M 7.226562 5.734375 "/>
</g>
</svg>
